<svg xmlns="http://www.w3.org/2000/svg" xmlns:v="https://svgstorm.com"
viewBox = "0 0 1080 1080"
width="1080"
height="1080">
<g fill="None" fill-opacity="0.0" stroke="#FEFEFE" stroke-opacity="1.00" stroke-width="0.3"><path d="
M 0.00 1080.00 
L 1080.00 1080.00
L 1080.00 0.00
L 0.00 0.00
L 0.00 1080.00
M 506.00 372.00 
C 566.95 377.90 602.56 454.53 567.08 504.08 C 531.60 553.63 453.89 551.17 424.23 495.77 C 394.57 440.37 440.77 365.69 506.00 372.00
M 510.00 562.00 
C 554.77 562.00 588.76 576.57 628.75 595.25 C 668.73 613.94 671.40 667.63 666.00 708.00
C 554.00 708.00 442.00 708.00 330.00 708.00
C 324.77 666.37 327.29 614.05 368.25 594.25 C 409.20 574.44 445.10 563.31 491.00 562.00
C 496.98 561.42 504.09 561.43 510.00 562.00 Z"/>
</g>
<g fill="None" fill-opacity="0.0" stroke="#000000" stroke-opacity="1.00" stroke-width="0.3"><path d="
M 506.00 372.00 
C 440.77 365.69 394.57 440.37 424.23 495.77 C 453.89 551.17 531.60 553.63 567.08 504.08 C 602.56 454.53 566.95 377.90 506.00 372.00
M 498.00 411.00 
C 530.56 411.57 552.87 450.70 535.75 478.75 C 518.62 506.79 477.16 506.34 460.08 478.92 C 442.99 451.51 465.12 410.42 498.00 411.00 Z"/>
</g>
<g fill="None" fill-opacity="0.0" stroke="#FBFBFB" stroke-opacity="1.00" stroke-width="0.3"><path d="
M 498.00 411.00 
C 465.12 410.42 442.99 451.51 460.08 478.92 C 477.16 506.34 518.62 506.79 535.75 478.75 C 552.87 450.70 530.56 411.57 498.00 411.00 Z"/>
</g>
<g fill="None" fill-opacity="0.0" stroke="#797979" stroke-opacity="0.88" stroke-width="0.3"><path d="
M 491.00 562.00 
C 497.33 562.00 503.67 562.00 510.00 562.00
C 504.09 561.43 496.98 561.42 491.00 562.00 Z"/>
</g>
<g fill="None" fill-opacity="0.0" stroke="#000000" stroke-opacity="1.00" stroke-width="0.3"><path d="
M 510.00 562.00 
C 503.67 562.00 497.33 562.00 491.00 562.00
C 445.10 563.31 409.20 574.44 368.25 594.25 C 327.29 614.05 324.77 666.37 330.00 708.00
C 442.00 708.00 554.00 708.00 666.00 708.00
C 671.40 667.63 668.73 613.94 628.75 595.25 C 588.76 576.57 554.77 562.00 510.00 562.00
M 517.00 601.00 
C 525.92 601.86 536.67 604.48 545.67 606.33 C 554.68 608.17 563.60 611.38 572.22 613.78 C 580.84 616.18 588.90 619.19 596.70 623.31 C 604.49 627.42 612.30 628.58 618.70 635.30 C 625.09 642.02 628.53 651.94 627.00 662.00 C 625.47 672.06 608.96 667.33 599.00 668.00 C 589.04 668.67 575.72 667.69 565.00 668.00 C 554.28 668.31 542.08 667.85 531.00 668.00 C 519.92 668.15 508.27 667.92 497.00 668.00 C 485.73 668.08 473.28 667.92 462.00 668.00 C 450.72 668.08 439.14 667.86 428.00 668.00 C 416.86 668.14 404.87 667.72 394.00 668.00 C 383.13 668.28 368.54 670.84 369.00 659.00 C 369.47 647.16 371.23 641.92 378.75 634.75 C 386.27 627.58 392.56 626.36 401.08 622.08 C 409.60 617.79 416.99 615.80 426.02 613.02 C 435.06 610.25 443.40 607.74 453.01 606.01 C 462.61 604.27 471.89 601.42 482.22 601.22 C 492.55 601.02 506.42 599.98 517.00 601.00 Z"/>
</g>
<g fill="None" fill-opacity="0.0" stroke="#FDFDFD" stroke-opacity="1.00" stroke-width="0.3"><path d="
M 517.00 601.00 
C 506.42 599.98 492.55 601.02 482.22 601.22 C 471.89 601.42 462.61 604.27 453.01 606.01 C 443.40 607.74 435.06 610.25 426.02 613.02 C 416.99 615.80 409.60 617.79 401.08 622.08 C 392.56 626.36 386.27 627.58 378.75 634.75 C 371.23 641.92 369.47 647.16 369.00 659.00 C 368.54 670.84 383.13 668.28 394.00 668.00 C 404.87 667.72 416.86 668.14 428.00 668.00 C 439.14 667.86 450.72 668.08 462.00 668.00 C 473.28 667.92 485.73 668.08 497.00 668.00 C 508.27 667.92 519.92 668.15 531.00 668.00 C 542.08 667.85 554.28 668.31 565.00 668.00 C 575.72 667.69 589.04 668.67 599.00 668.00 C 608.96 667.33 625.47 672.06 627.00 662.00 C 628.53 651.94 625.09 642.02 618.70 635.30 C 612.30 628.58 604.49 627.42 596.70 623.31 C 588.90 619.19 580.84 616.18 572.22 613.78 C 563.60 611.38 554.68 608.17 545.67 606.33 C 536.67 604.48 525.92 601.86 517.00 601.00 Z"/>
</g>
<g fill="#FEFEFE" fill-opacity="1.00" stroke="None">
<path d="
M 0.00 1080.00 
L 1080.00 1080.00
L 1080.00 0.00
L 0.00 0.00
L 0.00 1080.00
M 506.00 372.00 
C 566.95 377.90 602.56 454.53 567.08 504.08 C 531.60 553.63 453.89 551.17 424.23 495.77 C 394.57 440.37 440.77 365.69 506.00 372.00
M 510.00 562.00 
C 554.77 562.00 588.76 576.57 628.75 595.25 C 668.73 613.94 671.40 667.63 666.00 708.00
C 554.00 708.00 442.00 708.00 330.00 708.00
C 324.77 666.37 327.29 614.05 368.25 594.25 C 409.20 574.44 445.10 563.31 491.00 562.00
C 496.98 561.42 504.09 561.43 510.00 562.00 Z"/>
</g>
<g fill="#000000" fill-opacity="1.00" stroke="None">
<path d="
M 506.00 372.00 
C 440.77 365.69 394.57 440.37 424.23 495.77 C 453.89 551.17 531.60 553.63 567.08 504.08 C 602.56 454.53 566.95 377.90 506.00 372.00
M 498.00 411.00 
C 530.56 411.57 552.87 450.70 535.75 478.75 C 518.62 506.79 477.16 506.34 460.08 478.92 C 442.99 451.51 465.12 410.42 498.00 411.00 Z"/>
</g>
<g fill="#FBFBFB" fill-opacity="1.00" stroke="None">
<path d="
M 498.00 411.00 
C 465.12 410.42 442.99 451.51 460.08 478.92 C 477.16 506.34 518.62 506.79 535.75 478.75 C 552.87 450.70 530.56 411.57 498.00 411.00 Z"/>
</g>
<g fill="#797979" fill-opacity="0.88" stroke="None">
<path d="
M 491.00 562.00 
C 497.33 562.00 503.67 562.00 510.00 562.00
C 504.09 561.43 496.98 561.42 491.00 562.00 Z"/>
</g>
<g fill="#000000" fill-opacity="1.00" stroke="None">
<path d="
M 510.00 562.00 
C 503.67 562.00 497.33 562.00 491.00 562.00
C 445.10 563.31 409.20 574.44 368.25 594.25 C 327.29 614.05 324.77 666.37 330.00 708.00
C 442.00 708.00 554.00 708.00 666.00 708.00
C 671.40 667.63 668.73 613.94 628.75 595.25 C 588.76 576.57 554.77 562.00 510.00 562.00
M 517.00 601.00 
C 525.92 601.86 536.67 604.48 545.67 606.33 C 554.68 608.17 563.60 611.38 572.22 613.78 C 580.84 616.18 588.90 619.19 596.70 623.31 C 604.49 627.42 612.30 628.58 618.70 635.30 C 625.09 642.02 628.53 651.94 627.00 662.00 C 625.47 672.06 608.96 667.33 599.00 668.00 C 589.04 668.67 575.72 667.69 565.00 668.00 C 554.28 668.31 542.08 667.85 531.00 668.00 C 519.92 668.15 508.27 667.92 497.00 668.00 C 485.73 668.08 473.28 667.92 462.00 668.00 C 450.72 668.08 439.14 667.86 428.00 668.00 C 416.86 668.14 404.87 667.72 394.00 668.00 C 383.13 668.28 368.54 670.84 369.00 659.00 C 369.47 647.16 371.23 641.92 378.75 634.75 C 386.27 627.58 392.56 626.36 401.08 622.08 C 409.60 617.79 416.99 615.80 426.02 613.02 C 435.06 610.25 443.40 607.74 453.01 606.01 C 462.61 604.27 471.89 601.42 482.22 601.22 C 492.55 601.02 506.42 599.98 517.00 601.00 Z"/>
</g>
<g fill="#FDFDFD" fill-opacity="1.00" stroke="None">
<path d="
M 517.00 601.00 
C 506.42 599.98 492.55 601.02 482.22 601.22 C 471.89 601.42 462.61 604.27 453.01 606.01 C 443.40 607.74 435.06 610.25 426.02 613.02 C 416.99 615.80 409.60 617.79 401.08 622.08 C 392.56 626.36 386.27 627.58 378.75 634.75 C 371.23 641.92 369.47 647.16 369.00 659.00 C 368.54 670.84 383.13 668.28 394.00 668.00 C 404.87 667.72 416.86 668.14 428.00 668.00 C 439.14 667.86 450.72 668.08 462.00 668.00 C 473.28 667.92 485.73 668.08 497.00 668.00 C 508.27 667.92 519.92 668.15 531.00 668.00 C 542.08 667.85 554.28 668.31 565.00 668.00 C 575.72 667.69 589.04 668.67 599.00 668.00 C 608.96 667.33 625.47 672.06 627.00 662.00 C 628.53 651.94 625.09 642.02 618.70 635.30 C 612.30 628.58 604.49 627.42 596.70 623.31 C 588.90 619.19 580.84 616.18 572.22 613.78 C 563.60 611.38 554.68 608.17 545.67 606.33 C 536.67 604.48 525.92 601.86 517.00 601.00 Z"/>
</g>
</svg>